<?xml version="1.0" encoding="UTF-8" standalone="no"?>
<!-- Created with Inkscape (http://www.inkscape.org/) -->

<svg
   xmlns:dc="http://purl.org/dc/elements/1.1/"
   xmlns:cc="http://creativecommons.org/ns#"
   xmlns:rdf="http://www.w3.org/1999/02/22-rdf-syntax-ns#"
   xmlns:svg="http://www.w3.org/2000/svg"
   xmlns="http://www.w3.org/2000/svg"
   xmlns:sodipodi="http://sodipodi.sourceforge.net/DTD/sodipodi-0.dtd"
   xmlns:inkscape="http://www.inkscape.org/namespaces/inkscape"
   width="166.08594mm"
   height="152.38992mm"
   viewBox="0 0 588.49348 539.96429"
   id="svg2"
   version="1.1"
   inkscape:version="0.91 r13725"
   sodipodi:docname="cablaggi_v2.svg"
   inkscape:export-filename="/home/nicola/Documenti/repos/la_religione/docs/schematics/cablaggi_v2_readings.png"
   inkscape:export-xdpi="156.60327"
   inkscape:export-ydpi="156.60327">
  <defs
     id="defs4" />
  <sodipodi:namedview
     id="base"
     pagecolor="#ffffff"
     bordercolor="#666666"
     borderopacity="1.0"
     inkscape:pageopacity="1"
     inkscape:pageshadow="2"
     inkscape:zoom="0.98994949"
     inkscape:cx="184.30102"
     inkscape:cy="254.86139"
     inkscape:document-units="px"
     inkscape:current-layer="layer1"
     showgrid="false"
     showguides="true"
     inkscape:guide-bbox="true"
     inkscape:window-width="1600"
     inkscape:window-height="851"
     inkscape:window-x="0"
     inkscape:window-y="25"
     inkscape:window-maximized="1"
     inkscape:snap-grids="false"
     inkscape:snap-to-guides="false"
     fit-margin-top="0"
     fit-margin-left="0"
     fit-margin-right="0"
     fit-margin-bottom="0">
    <sodipodi:guide
       position="338.26447,48.223349"
       orientation="0,1"
       id="guide4140" />
    <sodipodi:guide
       position="278.66547,244.69802"
       orientation="1,0"
       id="guide4142" />
    <sodipodi:guide
       position="339.27462,225.00004"
       orientation="0,1"
       id="guide4144" />
    <sodipodi:guide
       position="499.3838,513.90367"
       orientation="0,1"
       id="guide4368" />
    <sodipodi:guide
       position="585.24677,492.69047"
       orientation="1,0"
       id="guide4370" />
  </sodipodi:namedview>
  <metadata
     id="metadata7">
    <rdf:RDF>
      <cc:Work
         rdf:about="">
        <dc:format>image/svg+xml</dc:format>
        <dc:type
           rdf:resource="http://purl.org/dc/dcmitype/StillImage" />
        <dc:title></dc:title>
      </cc:Work>
    </rdf:RDF>
  </metadata>
  <g
     inkscape:label="cerchio+pentagono"
     inkscape:groupmode="layer"
     id="layer1"
     style="display:inline"
     transform="translate(-106.70773,-28.27088)">
    <circle
       style="opacity:1;fill:none;fill-opacity:1;stroke:#787878;stroke-width:2;stroke-linecap:round;stroke-miterlimit:4;stroke-dasharray:none;stroke-dashoffset:0;stroke-opacity:1"
       id="path4136"
       cx="385.57144"
       cy="343.07651"
       r="222.14285" />
    <path
       sodipodi:type="star"
       style="opacity:1;fill:none;fill-opacity:1;stroke:#c8c8c8;stroke-width:1;stroke-linecap:round;stroke-miterlimit:4;stroke-dasharray:none;stroke-dashoffset:0;stroke-opacity:1"
       id="path4138"
       sodipodi:sides="5"
       sodipodi:cx="375.34891"
       sodipodi:cy="340.86603"
       sodipodi:r1="212.93739"
       sodipodi:r2="172.26997"
       sodipodi:arg1="0.88367212"
       sodipodi:arg2="1.5119906"
       inkscape:flatsided="true"
       inkscape:rounded="0"
       inkscape:randomized="0"
       d="M 510.41863,505.48226 260.52841,520.19418 169.31621,287.08069 362.8342,128.29671 573.64708,263.2763 Z"
       inkscape:transform-center-x="-130.07404"
       inkscape:transform-center-y="-197.58887"
       transform="matrix(1.030541,0.06060904,-0.06079916,1.0273185,18.600204,-27.969017)" />
  </g>
  <g
     style="display:inline;opacity:1"
     inkscape:label="supporti"
     id="g4169"
     inkscape:groupmode="layer"
     transform="translate(-106.70773,-28.27088)">
    <g
       id="g4191"
       transform="matrix(0.950486,0.31076737,-0.31076737,0.950486,125.84394,-102.62468)">
      <path
         style="fill:none;fill-rule:evenodd;stroke:#000000;stroke-width:1px;stroke-linecap:butt;stroke-linejoin:miter;stroke-opacity:1"
         d="m 385.3732,118.98125 0,224.25387"
         id="path4171"
         inkscape:connector-curvature="0" />
      <path
         inkscape:connector-curvature="0"
         id="path4173"
         d="M 515.3158,160.38106 385.58901,343.30388"
         style="fill:none;fill-rule:evenodd;stroke:#000000;stroke-width:1px;stroke-linecap:butt;stroke-linejoin:miter;stroke-opacity:1"
         inkscape:transform-center-y="-91.765715"
         inkscape:transform-center-x="-65.079205" />
      <path
         inkscape:transform-center-x="-106.98334"
         inkscape:transform-center-y="-34.796765"
         style="fill:none;fill-rule:evenodd;stroke:#000000;stroke-width:1px;stroke-linecap:butt;stroke-linejoin:miter;stroke-opacity:1"
         d="M 598.9851,274.13004 385.72797,343.4928"
         id="path4175"
         inkscape:connector-curvature="0" />
      <path
         inkscape:connector-curvature="0"
         id="path4177"
         d="M 599.0396,412.91854 385.72806,343.7233"
         style="fill:none;fill-rule:evenodd;stroke:#000000;stroke-width:1px;stroke-linecap:butt;stroke-linejoin:miter;stroke-opacity:1"
         inkscape:transform-center-y="34.712735"
         inkscape:transform-center-x="-107.01064" />
      <path
         inkscape:connector-curvature="0"
         id="path4181"
         d="M 252.60992,524.80193 385.15269,343.90912"
         style="fill:none;fill-rule:evenodd;stroke:#000000;stroke-width:1px;stroke-linecap:butt;stroke-linejoin:miter;stroke-opacity:1"
         inkscape:transform-center-y="90.74734"
         inkscape:transform-center-x="66.491885" />
      <path
         inkscape:transform-center-x="106.92579"
         inkscape:transform-center-y="34.973235"
         style="fill:none;fill-rule:evenodd;stroke:#000000;stroke-width:1px;stroke-linecap:butt;stroke-linejoin:miter;stroke-opacity:1"
         d="M 171.87621,413.43868 385.0186,343.72416"
         id="path4183"
         inkscape:connector-curvature="0" />
      <path
         inkscape:connector-curvature="0"
         id="path4185"
         d="m 170.90752,276.81196 214.10947,66.68528"
         style="fill:none;fill-rule:evenodd;stroke:#000000;stroke-width:1px;stroke-linecap:butt;stroke-linejoin:miter;stroke-opacity:1"
         inkscape:transform-center-y="-33.453585"
         inkscape:transform-center-x="107.41094" />
      <path
         inkscape:transform-center-x="67.798745"
         inkscape:transform-center-y="-89.77518"
         style="fill:none;fill-rule:evenodd;stroke:#000000;stroke-width:1px;stroke-linecap:butt;stroke-linejoin:miter;stroke-opacity:1"
         d="M 250.00054,164.35555 385.14836,343.31046"
         id="path4187"
         inkscape:connector-curvature="0" />
    </g>
    <circle
       r="158.64305"
       cy="343.82382"
       cx="386.20065"
       id="circle4203"
       style="display:inline;opacity:1;fill:#ffffff;fill-opacity:1;stroke:none;stroke-width:2;stroke-linecap:round;stroke-miterlimit:4;stroke-dasharray:none;stroke-dashoffset:0;stroke-opacity:1" />
  </g>
  <g
     inkscape:groupmode="layer"
     id="layer2"
     inkscape:label="spicchi_religiosi"
     style="display:inline;opacity:0.41300001"
     transform="translate(-106.70773,-28.27088)">
    <path
       style="fill:none;fill-rule:evenodd;stroke:#000000;stroke-width:1px;stroke-linecap:butt;stroke-linejoin:miter;stroke-opacity:1"
       d="m 385.3732,118.98125 0,224.25387"
       id="path4149"
       inkscape:connector-curvature="0" />
    <path
       inkscape:connector-curvature="0"
       id="path4151"
       d="M 515.3158,160.38106 385.58901,343.30388"
       style="fill:none;fill-rule:evenodd;stroke:#000000;stroke-width:1px;stroke-linecap:butt;stroke-linejoin:miter;stroke-opacity:1"
       inkscape:transform-center-y="-91.765715"
       inkscape:transform-center-x="-65.079205" />
    <path
       inkscape:transform-center-x="-106.98334"
       inkscape:transform-center-y="-34.796765"
       style="fill:none;fill-rule:evenodd;stroke:#000000;stroke-width:1px;stroke-linecap:butt;stroke-linejoin:miter;stroke-opacity:1"
       d="M 598.9851,274.13004 385.72797,343.4928"
       id="path4153"
       inkscape:connector-curvature="0" />
    <path
       inkscape:connector-curvature="0"
       id="path4155"
       d="M 599.0396,412.91854 385.72806,343.7233"
       style="fill:none;fill-rule:evenodd;stroke:#000000;stroke-width:1px;stroke-linecap:butt;stroke-linejoin:miter;stroke-opacity:1"
       inkscape:transform-center-y="34.712735"
       inkscape:transform-center-x="-107.01064" />
    <path
       inkscape:transform-center-x="-65.72074"
       inkscape:transform-center-y="91.307365"
       style="fill:none;fill-rule:evenodd;stroke:#000000;stroke-width:1px;stroke-linecap:butt;stroke-linejoin:miter;stroke-opacity:1"
       d="M 516.59673,525.92012 385.59113,343.91098"
       id="path4157"
       inkscape:connector-curvature="0" />
    <path
       inkscape:connector-curvature="0"
       id="path4159"
       d="M 252.60992,524.80193 385.15269,343.90912"
       style="fill:none;fill-rule:evenodd;stroke:#000000;stroke-width:1px;stroke-linecap:butt;stroke-linejoin:miter;stroke-opacity:1"
       inkscape:transform-center-y="90.74734"
       inkscape:transform-center-x="66.491885" />
    <path
       inkscape:transform-center-x="106.92579"
       inkscape:transform-center-y="34.973235"
       style="fill:none;fill-rule:evenodd;stroke:#000000;stroke-width:1px;stroke-linecap:butt;stroke-linejoin:miter;stroke-opacity:1"
       d="M 171.87621,413.43868 385.0186,343.72416"
       id="path4161"
       inkscape:connector-curvature="0" />
    <path
       inkscape:connector-curvature="0"
       id="path4163"
       d="m 170.90752,276.81196 214.10947,66.68528"
       style="fill:none;fill-rule:evenodd;stroke:#000000;stroke-width:1px;stroke-linecap:butt;stroke-linejoin:miter;stroke-opacity:1"
       inkscape:transform-center-y="-33.453585"
       inkscape:transform-center-x="107.41094" />
    <path
       inkscape:transform-center-x="67.798745"
       inkscape:transform-center-y="-89.77518"
       style="fill:none;fill-rule:evenodd;stroke:#000000;stroke-width:1px;stroke-linecap:butt;stroke-linejoin:miter;stroke-opacity:1"
       d="M 250.00054,164.35555 385.14836,343.31046"
       id="path4165"
       inkscape:connector-curvature="0" />
    <path
       inkscape:connector-curvature="0"
       id="path4167"
       d="m 385.39334,568.23512 -0.0201,-224.25386"
       style="fill:none;fill-rule:evenodd;stroke:#000000;stroke-width:1px;stroke-linecap:butt;stroke-linejoin:miter;stroke-opacity:1"
       inkscape:transform-center-y="112.50001"
       inkscape:transform-center-x="-0.0101" />
  </g>
  <g
     inkscape:groupmode="layer"
     id="layer4"
     inkscape:label="power"
     style="display:none"
     transform="translate(-106.70773,-28.27088)">
    <path
       style="fill:none;fill-rule:evenodd;stroke:#ff0000;stroke-width:2;stroke-linecap:butt;stroke-linejoin:miter;stroke-miterlimit:4;stroke-dasharray:none;stroke-opacity:1"
       d="m 385.3732,86.656371 c 0,38.385799 -44.49036,23.977939 -58.14469,34.870569 -13.65433,10.89262 10.6066,70.2056 10.6066,70.2056 0,0 -19.1929,-53.03301 -28.78934,-62.12438 -9.59645,-9.09137 -108.49258,54.52793 -102.97465,73.21575 3.1596,10.70078 52.52793,46.9721 52.52793,46.9721 0,0 -57.07362,-41.92134 -69.70053,-25.75889 -12.6269,16.16244 -38.19244,88.55197 -33.33503,103.58125 5.13347,15.8834 70.71068,12.58629 70.71068,12.58629 0,0 -69.94088,-3.88441 -68.69038,18.22336 1.25051,22.10777 13.69674,78.79079 30.80966,101.52032 17.11293,22.72954 61.61931,-26.26396 61.61931,-26.26396"
       id="path4262"
       inkscape:connector-curvature="0"
       sodipodi:nodetypes="czczsczsczzc" />
    <path
       sodipodi:nodetypes="czczsczsczzc"
       inkscape:connector-curvature="0"
       id="path4264"
       d="m 389.91889,86.656371 c 0,38.385799 -44.49036,23.977939 -58.14469,34.870569 -13.65433,10.89262 10.6066,70.2056 10.6066,70.2056 0,0 -19.1929,-53.03301 -28.78934,-62.12438 -9.59645,-9.09137 -108.49258,54.52793 -102.97465,73.21575 3.1596,10.70078 52.52793,46.9721 52.52793,46.9721 0,0 -57.07362,-41.92134 -69.70053,-25.75889 -12.6269,16.16244 -38.19244,88.55197 -33.33503,103.58125 5.13347,15.8834 70.71068,12.58629 70.71068,12.58629 0,0 -69.94088,-3.88441 -68.69038,18.22336 1.25051,22.10777 13.69674,78.79079 30.80966,101.52032 17.11293,22.72954 61.61931,-26.26396 61.61931,-26.26396"
       style="fill:none;fill-rule:evenodd;stroke:#0000ff;stroke-width:2;stroke-linecap:butt;stroke-linejoin:miter;stroke-miterlimit:4;stroke-dasharray:none;stroke-opacity:1" />
    <g
       id="g4270"
       transform="matrix(-1,0,0,1,842.84764,0)">
      <path
         sodipodi:nodetypes="czczsczsczzc"
         inkscape:connector-curvature="0"
         id="path4266"
         d="m 449.91889,86.656371 c 0,38.385799 -44.49036,23.977939 -58.14469,34.870569 -13.65433,10.89262 10.6066,70.2056 10.6066,70.2056 0,0 -19.1929,-53.03301 -28.78934,-62.12438 -9.59645,-9.09137 -108.49258,54.52793 -102.97465,73.21575 3.1596,10.70078 52.52793,46.9721 52.52793,46.9721 0,0 -57.07362,-41.92134 -69.70053,-25.75889 -12.6269,16.16244 -38.19244,88.55197 -33.33503,103.58125 5.13347,15.8834 70.71068,12.58629 70.71068,12.58629 0,0 -69.94088,-3.88441 -68.69038,18.22336 1.25051,22.10777 21.69674,88.79079 38.80966,111.52032 17.11293,22.72954 61.61931,-26.26396 61.61931,-26.26396"
         style="fill:none;fill-rule:evenodd;stroke:#0000ff;stroke-width:2;stroke-linecap:butt;stroke-linejoin:miter;stroke-miterlimit:4;stroke-dasharray:none;stroke-opacity:1" />
      <path
         style="fill:none;fill-rule:evenodd;stroke:#ff0000;stroke-width:2;stroke-linecap:butt;stroke-linejoin:miter;stroke-miterlimit:4;stroke-dasharray:none;stroke-opacity:1"
         d="m 445.3732,86.656371 c 0,38.385799 -44.49036,23.977939 -58.14469,34.870569 -13.65433,10.89262 10.6066,70.2056 10.6066,70.2056 0,0 -19.1929,-53.03301 -28.78934,-62.12438 -9.59645,-9.09137 -108.49258,54.52793 -102.97465,73.21575 3.1596,10.70078 52.52793,46.9721 52.52793,46.9721 0,0 -57.07362,-41.92134 -69.70053,-25.75889 -12.6269,16.16244 -38.19244,88.55197 -33.33503,103.58125 5.13347,15.8834 70.71068,12.58629 70.71068,12.58629 0,0 -69.94088,-3.88441 -68.69038,18.22336 1.25051,22.10777 25.69674,82.79079 42.80966,105.52032 17.11293,22.72954 61.61931,-26.26396 61.61931,-26.26396"
         id="path4268"
         inkscape:connector-curvature="0"
         sodipodi:nodetypes="czczsczsczzc" />
    </g>
    <text
       xml:space="preserve"
       style="font-style:normal;font-variant:normal;font-weight:normal;font-stretch:normal;font-size:15px;font-family:Courier;-inkscape-font-specification:Courier;text-align:end;text-anchor:end;display:inline;opacity:1;fill:#808080;fill-opacity:1;stroke:none;stroke-width:2;stroke-linecap:round;stroke-miterlimit:4;stroke-dasharray:none;stroke-dashoffset:0;stroke-opacity:1"
       x="693.76001"
       y="51.179504"
       id="text4364-5-2"><tspan
         sodipodi:role="line"
         id="tspan4366-6-9"
         x="693.76001"
         y="51.179504"
         style="font-size:40px;fill:#000000;fill-opacity:1">power</tspan></text>
  </g>
  <g
     inkscape:groupmode="layer"
     id="layer6"
     inkscape:label="trigger"
     style="display:none"
     transform="translate(-106.70773,-28.27088)">
    <path
       sodipodi:nodetypes="ccccszcszcszczzczsczsczzc"
       inkscape:connector-curvature="0"
       id="path4264-3"
       d="m 383.24272,77.414561 -4.4235,23.145779 C 63.651624,134.90552 144.08094,458.0666 178.42612,481.30011 l 71.96521,-43.61202 c 0,0 -53.31339,33.83031 -61.86986,22.46554 -17.11292,-22.72953 -29.55915,-79.41255 -30.80966,-101.52032 -1.2505,-22.10777 68.69038,-18.22336 68.69038,-18.22336 0,0 -65.57721,3.29711 -70.71068,-12.58629 -4.85741,-15.02928 20.70813,-87.41881 33.33503,-103.58125 12.62691,-16.16245 69.70053,25.75889 69.70053,25.75889 0,0 -49.36833,-36.27132 -52.52793,-46.9721 -5.51793,-18.68782 93.3782,-82.30712 102.97465,-73.21575 9.59644,9.09137 28.78934,62.12438 28.78934,62.12438 0,0 -25.14316,-65.45042 -12.74946,-69.49131 12.3937,-4.0409 109.48788,-10.76732 119.92049,-3.23868 10.43261,7.52864 -12.03517,66.27703 -12.03517,66.27703 0,0 19.1929,-53.03301 28.78934,-62.12438 9.59645,-9.09137 108.49258,54.52793 102.97465,73.21575 -3.1596,10.70078 -52.52793,46.9721 -52.52793,46.9721 0,0 57.07362,-41.92134 69.70053,-25.75889 12.6269,16.16244 38.19244,88.55197 33.33503,103.58125 -5.13347,15.8834 -70.71068,12.58629 -70.71068,12.58629 0,0 69.94088,-3.88441 68.69038,18.22336 -1.25051,22.10777 -21.69674,88.79079 -38.80966,111.52032 -17.11293,22.72954 -61.61931,-26.26396 -61.61931,-26.26396"
       style="display:inline;fill:none;fill-rule:evenodd;stroke:#00b400;stroke-width:2;stroke-linecap:butt;stroke-linejoin:miter;stroke-miterlimit:4;stroke-dasharray:none;stroke-opacity:1" />
    <text
       xml:space="preserve"
       style="font-style:normal;font-variant:normal;font-weight:normal;font-stretch:normal;font-size:15px;font-family:Courier;-inkscape-font-specification:Courier;text-align:end;text-anchor:end;display:inline;opacity:1;fill:#808080;fill-opacity:1;stroke:none;stroke-width:2;stroke-linecap:round;stroke-miterlimit:4;stroke-dasharray:none;stroke-dashoffset:0;stroke-opacity:1"
       x="694.94989"
       y="54.51088"
       id="text4364-5"><tspan
         sodipodi:role="line"
         id="tspan4366-6"
         x="694.94989"
         y="54.51088"
         style="font-size:40px;fill:#000000;fill-opacity:1">triggers</tspan></text>
  </g>
  <g
     inkscape:groupmode="layer"
     id="layer7"
     inkscape:label="readings"
     style="display:inline"
     transform="translate(-106.70773,-28.27088)">
    <path
       sodipodi:nodetypes="ccc"
       inkscape:connector-curvature="0"
       id="path4264-3-3"
       d="M 384.51167,57.367254 C 69.34408,91.712434 61.677316,402.90725 172.60336,509.09942 l 87.94489,-66.70339"
       style="display:inline;fill:none;fill-rule:evenodd;stroke:#ff4dc7;stroke-width:2;stroke-linecap:butt;stroke-linejoin:miter;stroke-miterlimit:4;stroke-dasharray:none;stroke-opacity:1" />
    <path
       style="display:inline;fill:none;fill-rule:evenodd;stroke:#ff4dc7;stroke-width:2;stroke-linecap:butt;stroke-linejoin:miter;stroke-miterlimit:4;stroke-dasharray:none;stroke-opacity:1"
       d="M 384.51167,63.367254 C 119.85171,103.77335 118.77379,313.4961 118.58305,352.00805 l 115.9652,-1.61202"
       id="path4350"
       inkscape:connector-curvature="0"
       sodipodi:nodetypes="ccc" />
    <path
       sodipodi:nodetypes="ccc"
       inkscape:connector-curvature="0"
       id="path4352"
       d="M 384.51167,71.367254 C 249.15123,92.580447 187.01745,170.64838 168.64397,199.05881 l 87.3992,59.37783"
       style="display:inline;fill:none;fill-rule:evenodd;stroke:#ff4dc7;stroke-width:2;stroke-linecap:butt;stroke-linejoin:miter;stroke-miterlimit:4;stroke-dasharray:none;stroke-opacity:1" />
    <path
       style="display:inline;fill:none;fill-rule:evenodd;stroke:#ff4dc7;stroke-width:2;stroke-linecap:butt;stroke-linejoin:miter;stroke-miterlimit:4;stroke-dasharray:none;stroke-opacity:1"
       d="m 384.51167,79.367254 c -43.43656,8.08121 -50.68457,11.034917 -87.2408,25.303206 l 31.33574,90.61644"
       id="path4354"
       inkscape:connector-curvature="0"
       sodipodi:nodetypes="ccc" />
    <path
       style="display:inline;fill:none;fill-rule:evenodd;stroke:#ff4dc7;stroke-width:2;stroke-linecap:butt;stroke-linejoin:miter;stroke-miterlimit:4;stroke-dasharray:none;stroke-opacity:1"
       d="M 387.71305,54.336796 C 702.88064,88.681976 710.54741,399.87679 599.62136,506.06896 l -87.94489,-66.70339"
       id="path4356"
       inkscape:connector-curvature="0"
       sodipodi:nodetypes="ccc" />
    <path
       sodipodi:nodetypes="ccc"
       inkscape:connector-curvature="0"
       id="path4358"
       d="M 387.71305,60.336796 C 652.37301,100.74289 653.45093,310.46564 653.64167,348.97759 l -115.9652,-1.61202"
       style="display:inline;fill:none;fill-rule:evenodd;stroke:#ff4dc7;stroke-width:2;stroke-linecap:butt;stroke-linejoin:miter;stroke-miterlimit:4;stroke-dasharray:none;stroke-opacity:1" />
    <path
       style="display:inline;fill:none;fill-rule:evenodd;stroke:#ff4dc7;stroke-width:2;stroke-linecap:butt;stroke-linejoin:miter;stroke-miterlimit:4;stroke-dasharray:none;stroke-opacity:1"
       d="m 387.71305,68.336796 c 135.36044,21.213193 197.49422,99.281124 215.8677,127.691554 l -87.3992,59.37783"
       id="path4360"
       inkscape:connector-curvature="0"
       sodipodi:nodetypes="ccc" />
    <path
       sodipodi:nodetypes="ccc"
       inkscape:connector-curvature="0"
       id="path4362"
       d="m 387.71305,76.336796 c 43.43656,8.08121 50.68457,11.034917 87.2408,25.303204 l -31.33574,90.61644"
       style="display:inline;fill:none;fill-rule:evenodd;stroke:#ff4dc7;stroke-width:2;stroke-linecap:butt;stroke-linejoin:miter;stroke-miterlimit:4;stroke-dasharray:none;stroke-opacity:1" />
    <text
       xml:space="preserve"
       style="font-style:normal;font-variant:normal;font-weight:normal;font-stretch:normal;font-size:15px;font-family:Courier;-inkscape-font-specification:Courier;text-align:end;text-anchor:end;opacity:1;fill:#808080;fill-opacity:1;stroke:none;stroke-width:2;stroke-linecap:round;stroke-miterlimit:4;stroke-dasharray:none;stroke-dashoffset:0;stroke-opacity:1"
       x="699.02557"
       y="56.351795"
       id="text4364"><tspan
         sodipodi:role="line"
         id="tspan4366"
         x="699.02557"
         y="56.351795"
         style="font-size:40px;fill:#000000;fill-opacity:1">readings</tspan></text>
  </g>
  <g
     inkscape:groupmode="layer"
     id="layer3"
     inkscape:label="arduino"
     style="display:inline"
     transform="translate(-106.70773,-28.27088)">
    <rect
       style="opacity:1;fill:#00979d;fill-opacity:1;stroke:none;stroke-width:2;stroke-linecap:round;stroke-miterlimit:4;stroke-dasharray:none;stroke-dashoffset:0;stroke-opacity:1"
       id="rect4255"
       width="43.313221"
       height="26.769043"
       x="44.039097"
       y="-408.79758"
       transform="matrix(0,1,-1,0,0,0)" />
    <text
       xml:space="preserve"
       style="font-style:normal;font-variant:normal;font-weight:normal;font-stretch:normal;font-size:40px;font-family:Courier;-inkscape-font-specification:Courier;text-align:end;text-anchor:end;opacity:1;fill:#00979d;fill-opacity:1;stroke:none;stroke-width:2;stroke-linecap:round;stroke-miterlimit:4;stroke-dasharray:none;stroke-dashoffset:0;stroke-opacity:1"
       x="400.02042"
       y="38.674126"
       id="text4257"><tspan
         sodipodi:role="line"
         id="tspan4259"
         x="400.02042"
         y="38.674126"
         style="font-size:15px;fill:#000000">arduino</tspan></text>
    <text
       id="text4291"
       y="455.36206"
       x="343.45187"
       style="font-style:normal;font-variant:normal;font-weight:normal;font-stretch:normal;font-size:40px;font-family:Courier;-inkscape-font-specification:Courier;text-align:end;text-anchor:end;opacity:1;fill:#00979d;fill-opacity:1;stroke:none;stroke-width:2;stroke-linecap:round;stroke-miterlimit:4;stroke-dasharray:none;stroke-dashoffset:0;stroke-opacity:1"
       xml:space="preserve"><tspan
         style="font-size:15px;fill:#000000"
         y="455.36206"
         x="343.45187"
         id="tspan4293"
         sodipodi:role="line">sensori</tspan></text>
  </g>
  <g
     inkscape:groupmode="layer"
     id="layer5"
     inkscape:label="sensori"
     style="display:inline"
     transform="translate(-106.70773,-28.27088)">
    <rect
       style="opacity:1;fill:#808080;fill-opacity:1;stroke:none;stroke-width:2;stroke-linecap:round;stroke-miterlimit:4;stroke-dasharray:none;stroke-dashoffset:0;stroke-opacity:1"
       id="rect4275"
       width="30.304577"
       height="18.687822"
       x="485.7442"
       y="79.268539"
       transform="matrix(0.66110525,0.75029317,-0.75029317,0.66110525,0,0)" />
    <rect
       transform="matrix(-0.03575922,0.99936043,-0.99936043,-0.03575922,0,0)"
       y="-260.44733"
       x="321.59177"
       height="18.687822"
       width="30.304577"
       id="rect4277"
       style="opacity:1;fill:#808080;fill-opacity:1;stroke:none;stroke-width:2;stroke-linecap:round;stroke-miterlimit:4;stroke-dasharray:none;stroke-dashoffset:0;stroke-opacity:1" />
    <rect
       style="opacity:1;fill:#808080;fill-opacity:1;stroke:none;stroke-width:2;stroke-linecap:round;stroke-miterlimit:4;stroke-dasharray:none;stroke-dashoffset:0;stroke-opacity:1"
       id="rect4279"
       width="30.304577"
       height="18.687822"
       x="85.143486"
       y="-361.80835"
       transform="matrix(-0.48323019,0.87549334,-0.87549334,-0.48323019,0,0)" />
    <rect
       transform="matrix(-0.87430611,0.48537493,-0.48537493,-0.87430611,0,0)"
       y="-345.55334"
       x="-213.82216"
       height="18.687822"
       width="30.304577"
       id="rect4281"
       style="opacity:1;fill:#808080;fill-opacity:1;stroke:none;stroke-width:2;stroke-linecap:round;stroke-miterlimit:4;stroke-dasharray:none;stroke-dashoffset:0;stroke-opacity:1"
       inkscape:transform-center-x="2.5253814"
       inkscape:transform-center-y="5.555839" />
    <rect
       inkscape:transform-center-y="1.7181844"
       inkscape:transform-center-x="5.8559866"
       style="opacity:1;fill:#808080;fill-opacity:1;stroke:none;stroke-width:2;stroke-linecap:round;stroke-miterlimit:4;stroke-dasharray:none;stroke-dashoffset:0;stroke-opacity:1"
       id="rect4283"
       width="30.304577"
       height="18.687822"
       x="-491.3537"
       y="-38.089233"
       transform="matrix(-0.93869134,-0.3447587,0.3447587,-0.93869134,0,0)" />
    <rect
       transform="matrix(-0.5383957,-0.84269215,0.84269215,-0.5383957,0,0)"
       y="290.36624"
       x="-500.77856"
       height="18.687822"
       width="30.304577"
       id="rect4285"
       style="opacity:1;fill:#808080;fill-opacity:1;stroke:none;stroke-width:2;stroke-linecap:round;stroke-miterlimit:4;stroke-dasharray:none;stroke-dashoffset:0;stroke-opacity:1"
       inkscape:transform-center-x="5.7010531"
       inkscape:transform-center-y="-2.1777499" />
    <rect
       inkscape:transform-center-y="-4.8574932"
       inkscape:transform-center-x="3.6945358"
       style="opacity:1;fill:#808080;fill-opacity:1;stroke:none;stroke-width:2;stroke-linecap:round;stroke-miterlimit:4;stroke-dasharray:none;stroke-dashoffset:0;stroke-opacity:1"
       id="rect4287"
       width="30.304577"
       height="18.687822"
       x="-359.271"
       y="533.11469"
       transform="matrix(-0.01285869,-0.99991732,0.99991732,-0.01285869,0,0)" />
    <rect
       transform="matrix(0.63858252,-0.76955336,0.76955336,0.63858252,0,0)"
       y="671.93921"
       x="-16.228886"
       height="18.687822"
       width="30.304577"
       id="rect4289"
       style="opacity:1;fill:#808080;fill-opacity:1;stroke:none;stroke-width:2;stroke-linecap:round;stroke-miterlimit:4;stroke-dasharray:none;stroke-dashoffset:0;stroke-opacity:1"
       inkscape:transform-center-x="-0.33715923"
       inkscape:transform-center-y="-6.093528" />
  </g>
</svg>
